<?xml version="1.0" encoding="iso-8859-1"?>
<!-- Generator: Adobe Illustrator 24.3.0, SVG Export Plug-In . SVG Version: 6.00 Build 0)  -->
<svg version="1.1" id="Layer_1" xmlns="http://www.w3.org/2000/svg" xmlns:xlink="http://www.w3.org/1999/xlink" x="0px" y="0px"
	 viewBox="0 0 24 24" style="enable-background:new 0 0 24 24;" xml:space="preserve">
<path style="opacity:0.35;" d="M16,21H8c-2.761,0-5-2.239-5-5V8c0-2.761,2.239-5,5-5h8c2.761,0,5,2.239,5,5v8
	C21,18.761,18.761,21,16,21z"/>
<path d="M12,7c-2.761,0-5,2.239-5,5s2.239,5,5,5s5-2.239,5-5S14.761,7,12,7z M12,15c-1.657,0-3-1.343-3-3s1.343-3,3-3s3,1.343,3,3
	S13.657,15,12,15z"/>
<circle cx="17" cy="7" r="1"/>
</svg>