<?xml version="1.0" encoding="UTF-8" standalone="no"?>
<!-- Created with Inkscape (http://www.inkscape.org/) -->

<svg
   width="55.401386mm"
   height="54.060284mm"
   viewBox="0 0 55.401386 54.060284"
   version="1.1"
   id="svg336"
   xmlns:inkscape="http://www.inkscape.org/namespaces/inkscape"
   xmlns:sodipodi="http://sodipodi.sourceforge.net/DTD/sodipodi-0.dtd"
   xmlns="http://www.w3.org/2000/svg"
   xmlns:svg="http://www.w3.org/2000/svg">
  <sodipodi:namedview
     id="namedview338"
     pagecolor="#ffffff"
     bordercolor="#000000"
     borderopacity="0.25"
     inkscape:showpageshadow="2"
     inkscape:pageopacity="0"
     inkscape:pagecheckerboard="0"
     inkscape:deskcolor="#d1d1d1"
     inkscape:document-units="mm"
     showgrid="false" />
  <defs
     id="defs333" />
  <g
     inkscape:label="Capa 1"
     inkscape:groupmode="layer"
     id="layer1"
     transform="translate(-35.650007,-55.143633)">
    <path
       d="M 52.561662,108.22258 36.631346,92.292191 c -1.308452,-1.308453 -1.308452,-3.443111 0,-4.751564 L 52.561662,71.610594 c 1.308452,-1.308805 3.443111,-1.308805 4.751916,0 l 0.859719,0.85972 c 1.308806,1.308805 1.308806,3.443111 0,4.751563 l -10.318679,10.31875 c -1.308699,1.308453 -1.308699,3.443111 0,4.751564 l 10.318679,10.318749 c 1.308806,1.30845 1.308806,3.44311 0,4.75156 l -0.859719,0.86008 c -1.308805,1.30845 -3.443464,1.30845 -4.751916,0"
       style="fill:#424ca1;fill-opacity:1;fill-rule:evenodd;stroke:none;stroke-width:0.0352778"
       id="path80" />
    <path
       d="M 74.139667,108.22258 90.070052,92.292191 c 1.308453,-1.308453 1.308453,-3.443111 0,-4.751564 L 74.139667,71.610594 c -1.308806,-1.308805 -3.443111,-1.308805 -4.751564,0 l -0.860072,0.85972 c -1.308453,1.308805 -1.308453,3.443111 0,4.751563 l 10.318749,10.31875 c 1.308806,1.308453 1.308806,3.443111 0,4.751564 L 68.528031,102.61094 c -1.308453,1.30845 -1.308453,3.44311 0,4.75156 l 0.860072,0.86008 c 1.308453,1.30845 3.442758,1.30845 4.751564,0"
       style="fill:#424ca1;fill-opacity:1;fill-rule:evenodd;stroke:none;stroke-width:0.0352778"
       id="path82" />
    <path
       d="m 70.433383,73.780883 10.432345,18.06963 c 1.037872,1.797756 0.418041,4.110567 -1.379362,5.148439 l -18.06963,10.432698 c -1.797755,1.03787 -4.110919,0.41804 -5.148791,-1.37972 L 45.83553,87.982305 c -1.037943,-1.797403 -0.418218,-4.110567 1.379679,-5.148439 L 65.284592,72.401522 c 1.797755,-1.038225 4.110919,-0.418395 5.148791,1.379361"
       style="fill:#ef8738;fill-opacity:1;fill-rule:evenodd;stroke:none;stroke-width:0.0352778"
       id="path84" />
    <path
       d="m 48.964916,93.402735 9.208381,9.208205 c 1.308806,1.30845 1.308806,3.44311 0,4.75156 l -0.222955,0.22331 c -0.683331,-0.31503 -1.279172,-0.83538 -1.682397,-1.53388 z m 9.959093,-17.329149 c -0.163337,0.418747 -0.413456,0.811036 -0.750712,1.148291 l -10.318679,10.31875 c -0.621065,0.620889 -0.946961,1.427339 -0.978676,2.243667 L 45.83553,87.982305 c -1.037802,-1.797403 -0.417971,-4.110567 1.379679,-5.148439 l 11.7088,-6.76028 v 0"
       style="fill:#1f2644;fill-opacity:1;fill-rule:evenodd;stroke:none;stroke-width:0.0352778"
       id="path86" />
    <path
       d="m 79.825386,90.048877 c -0.03175,0.815975 -0.357717,1.622778 -0.978606,2.243314 L 68.528031,102.61094 c -0.337256,0.33726 -0.587375,0.72954 -0.750712,1.14829 l 11.708695,-6.760278 c 1.797755,-1.037872 2.417586,-3.350683 1.379714,-5.148439 z m -11.0744,-17.801519 -0.222955,0.222956 c -1.308453,1.308805 -1.308453,3.443111 0,4.751563 l 9.208205,9.208206 -7.302853,-12.6492 c -0.403577,-0.6985 -0.999419,-1.218847 -1.682397,-1.533525 v 0"
       style="fill:#1f2644;fill-opacity:1;fill-rule:evenodd;stroke:none;stroke-width:0.0352778"
       id="path88" />
    <path
       d="m 54.886467,59.093333 h 7.586839 c 0.754591,0 1.370189,0.615597 1.370189,1.370542 v 7.586839 c 0,0.754944 -0.615598,1.370188 -1.370189,1.370188 h -7.586839 c -0.754944,0 -1.370542,-0.615244 -1.370542,-1.370188 v -7.586839 c 0,-0.754945 0.615598,-1.370542 1.370542,-1.370542"
       style="fill:#ef8738;fill-opacity:1;fill-rule:evenodd;stroke:none;stroke-width:0.0352778"
       id="path90" />
    <path
       d="m 68.454653,55.143633 h 5.985227 c 0.595842,0 1.081264,0.485775 1.081264,1.081264 v 5.985228 c 0,0.595489 -0.485422,1.081264 -1.081264,1.081264 h -5.985227 c -0.595489,0 -1.081264,-0.485775 -1.081264,-1.081264 v -5.985228 c 0,-0.595489 0.485775,-1.081264 1.081264,-1.081264"
       style="fill:#ef8738;fill-opacity:1;fill-rule:evenodd;stroke:none;stroke-width:0.0352778"
       id="path92" />
  </g>
</svg>
